# xmcd
#
# Track frame offsets: 
#        182
#        20100
#        58587
#
# Disc length: 1283 seconds
#
# Revision: 5
# Processed by: cddbd v1.5.2PL0 Copyright (c) Steve Scherf et al.
# Submitted via: ExactAudioCopy v1.2
#
DISCID=22050103
DTITLE=Underworld - Pearl's Girl [pt. 1] [CD-Single)
DYEAR=1996
DGENRE=Electronic
TTITLE0=Pearl's Girl (Short)
TTITLE1=Oich Oich
TTITLE2=Cherry Pie
EXTD=
EXTT0=
EXTT1=
EXTT2=
PLAYORDER=
